<?xml version="1.0" encoding="iso-8859-1"?>
<!-- Generator: Adobe Illustrator 19.0.0, SVG Export Plug-In . SVG Version: 6.00 Build 0)  -->
<svg version="1.1" id="Layer_1" xmlns="http://www.w3.org/2000/svg" xmlns:xlink="http://www.w3.org/1999/xlink" x="0px" y="0px"
	 viewBox="0 0 512.001 512.001" style="enable-background:new 0 0 512.001 512.001;" xml:space="preserve">
<g>
	<g>
		<path d="M463.245,146.249H48.756C21.872,146.249,0,168.122,0,195.006v121.991c0,26.884,21.872,48.755,48.756,48.755h414.487
			c26.885,0,48.756-21.871,48.757-48.756v-121.99C512.001,168.122,490.129,146.249,463.245,146.249z M491.603,316.995
			c0,15.636-12.721,28.358-28.358,28.358H48.756c-15.636,0-28.358-12.721-28.358-28.358v-121.99
			c0-15.636,12.721-28.357,28.358-28.357v-0.001h414.489c15.636,0,28.358,12.721,28.358,28.358V316.995z"/>
	</g>
</g>
<g>
	<g>
		<path d="M353.912,181.547H158.088c-5.633,0-10.199,4.566-10.199,10.199v128.51c0,5.633,4.566,10.199,10.199,10.199h195.825
			c5.632,0,10.199-4.566,10.199-10.199v-128.51C364.112,186.113,359.544,181.547,353.912,181.547z M343.713,310.057H168.287V201.945
			h175.426V310.057z"/>
	</g>
</g>
<g>
	<g>
		<path d="M454.958,268.167l-38.757-38.757c-3.985-3.983-10.441-3.983-14.425,0c-3.983,3.984-3.983,10.442,0,14.425l38.757,38.757
			c1.992,1.992,4.601,2.987,7.212,2.987c2.611,0,5.22-0.995,7.213-2.987C458.941,278.608,458.941,272.15,454.958,268.167z"/>
	</g>
</g>
<g>
	<g>
		<path d="M110.225,268.167L71.468,229.41c-3.984-3.983-10.442-3.984-14.425,0c-3.983,3.984-3.983,10.442,0,14.425L95.8,282.591
			c1.991,1.992,4.602,2.987,7.212,2.987s5.221-0.995,7.213-2.987C114.208,278.608,114.208,272.15,110.225,268.167z"/>
	</g>
</g>
<g>
	<g>
		<path d="M272.319,213.164h-5.1c-5.632,0-10.199,4.566-10.199,10.199s4.567,10.199,10.199,10.199h5.1
			c5.632,0,10.199-4.566,10.199-10.199S277.951,213.164,272.319,213.164z"/>
	</g>
</g>
<g>
	<g>
		<path d="M231.522,213.164h-41.817c-5.633,0-10.199,4.566-10.199,10.199s4.566,10.199,10.199,10.199h41.817
			c5.633,0,10.199-4.566,10.199-10.199S237.155,213.164,231.522,213.164z"/>
	</g>
</g>
<g>
</g>
<g>
</g>
<g>
</g>
<g>
</g>
<g>
</g>
<g>
</g>
<g>
</g>
<g>
</g>
<g>
</g>
<g>
</g>
<g>
</g>
<g>
</g>
<g>
</g>
<g>
</g>
<g>
</g>
</svg>
